<svg xmlns="http://www.w3.org/2000/svg" viewBox="0 0 63 63" preserveAspectRatio="xMidYMid"><defs><linearGradient id="b" x1="0%" y1="0%" x2="0%" y2="100%"><stop offset="0" stop-color="#FFF" stop-opacity=".2"/><stop offset="1" stop-color="#333" stop-opacity=".2"/></linearGradient><mask id="a" width="63" height="63"><path fill="#FFF" d="M0 0h63v63H0z"/></mask></defs><g mask="url(#a)"><path fill="#EFE5BD" d="M0 0h63v63H0z"/><path fill="#002856" d="M53 31l-4.88-5.58.68-7.38-7.22-1.64L37.8 10 31 12.92 24.2 10l-3.78 6.38L13.2 18l.68 7.4L9 31l4.88 5.58-.68 7.4 7.22 1.64L24.2 52l6.8-2.94 6.8 2.92 3.78-6.38 7.22-1.64-.68-7.38L53 31zm-25.82 9.44l-7.6-7.62 2.96-2.96 4.64 4.66 11.7-11.74 2.96 2.96-14.66 14.7z"/><path fill="url(#b)" d="M0 0h63v63H0z"/></g></svg>