<?xml version="1.0" encoding="UTF-8"?>
<!DOCTYPE svg PUBLIC "-//W3C//DTD SVG 1.1//EN" "http://www.w3.org/Graphics/SVG/1.1/DTD/svg11.dtd">
<svg xmlns="http://www.w3.org/2000/svg" version="1.1" viewBox="0 0 63 63" preserveAspectRatio="xMidYMid">
	<defs>
		<linearGradient id="overlay" x1="0%" y1="0%" x2="0%" y2="100%">
			<stop offset="0" stop-color="#FFF" stop-opacity="0.2" />
			<stop offset="1" stop-color="#333" stop-opacity= "0.2" />
		</linearGradient>
		<mask id="mask" width="63" height="63">
			<rect width="63" height="63" fill="#FFF" />
		</mask>
	</defs>
	<g mask="url(#mask)">
		<rect width="63" height="63" fill="#EFE5BD" />
		<g transform="scale(2) translate(3.5,3.5)"><path fill="#002856" d="M23,12l-2.44-2.79l0.34-3.69l-3.61-0.82L15.4,1.5L12,2.96L8.6,1.5L6.71,4.69L3.1,5.5L3.44,9.2L1,12l2.44,2.79l-0.34,3.7 l3.61,0.82L8.6,22.5l3.4-1.47l3.4,1.46l1.89-3.19l3.61-0.82l-0.34-3.69L23,12z M10.09,16.72l-3.8-3.81l1.48-1.48l2.32,2.33 l5.85-5.87l1.48,1.48L10.09,16.72z"/></g>
		<rect width="63" height="63" fill="url(#overlay)" />
	</g>
</svg>
